{"scene":0,"scenes":[{"nodes":[0]}],"asset":{"version":"2.0","generator":"https://github.com/mikedh/trimesh"},"accessors":[{"componentType":5125,"type":"SCALAR","bufferView":0,"count":82272,"max":[50336],"min":[6317]},{"componentType":5126,"type":"VEC3","byteOffset":0,"bufferView":1,"count":50337,"max":[92.12432861328125,124.39070129394531,163.6204833984375],"min":[-92.28343200683594,-1.2435743808746338,-166.29608154296875]},{"componentType":5126,"type":"VEC2","byteOffset":0,"bufferView":3,"count":50337,"max":[0.61098712682724,0.6517857313156128],"min":[0.0395585335791111,0.6517857313156128]},{"componentType":5126,"count":50337,"type":"VEC3","byteOffset":0,"bufferView":4,"max":[1.0,1.0,1.0],"min":[-1.0,-1.0,-1.0]}],"meshes":[{"name":"Humvee.obj","extras":{},"primitives":[{"attributes":{"POSITION":1,"TEXCOORD_0":2,"NORMAL":3},"indices":0,"mode":4,"material":0}]}],"images":[{"bufferView":2,"mimeType":"image/png"}],"textures":[{"source":0}],"materials":[{"pbrMetallicRoughness":{"baseColorTexture":{"index":0},"baseColorFactor":[0.4,0.4,0.4,1.0],"roughnessFactor":0.9036020036098448},"doubleSided":false}],"nodes":[{"name":"world","children":[1]},{"name":"Humvee.obj","mesh":0}],"buffers":[{"uri":"gltf_buffer_0.bin","byteLength":329088},{"uri":"gltf_buffer_1.bin","byteLength":604044},{"uri":"gltf_buffer_2.bin","byteLength":144},{"uri":"gltf_buffer_3.bin","byteLength":402696},{"uri":"gltf_buffer_4.bin","byteLength":604044}],"bufferViews":[{"buffer":0,"byteOffset":0,"byteLength":329088},{"buffer":1,"byteOffset":0,"byteLength":604044},{"buffer":2,"byteOffset":0,"byteLength":144},{"buffer":3,"byteOffset":0,"byteLength":402696},{"buffer":4,"byteOffset":0,"byteLength":604044}]}